%TF.GenerationSoftware,KiCad,Pcbnew,(5.1.9)-1*%
%TF.CreationDate,2021-03-06T00:16:47+01:00*%
%TF.ProjectId,CO2Sensor,434f3253-656e-4736-9f72-2e6b69636164,rev?*%
%TF.SameCoordinates,Original*%
%TF.FileFunction,Copper,L2,Bot*%
%TF.FilePolarity,Positive*%
%FSLAX46Y46*%
G04 Gerber Fmt 4.6, Leading zero omitted, Abs format (unit mm)*
G04 Created by KiCad (PCBNEW (5.1.9)-1) date 2021-03-06 00:16:47*
%MOMM*%
%LPD*%
G01*
G04 APERTURE LIST*
%TA.AperFunction,ComponentPad*%
%ADD10C,1.600000*%
%TD*%
%TA.AperFunction,ComponentPad*%
%ADD11O,1.600000X1.600000*%
%TD*%
%TA.AperFunction,ComponentPad*%
%ADD12R,1.800000X1.800000*%
%TD*%
%TA.AperFunction,ComponentPad*%
%ADD13C,1.800000*%
%TD*%
%TA.AperFunction,ComponentPad*%
%ADD14R,2.300000X2.300000*%
%TD*%
%TA.AperFunction,ComponentPad*%
%ADD15C,2.300000*%
%TD*%
%TA.AperFunction,ComponentPad*%
%ADD16R,1.524000X1.524000*%
%TD*%
%TA.AperFunction,ComponentPad*%
%ADD17C,1.524000*%
%TD*%
%TA.AperFunction,ComponentPad*%
%ADD18O,2.032000X1.727200*%
%TD*%
%TA.AperFunction,ComponentPad*%
%ADD19R,2.032000X1.727200*%
%TD*%
%TA.AperFunction,ComponentPad*%
%ADD20R,2.000000X2.000000*%
%TD*%
%TA.AperFunction,ComponentPad*%
%ADD21C,2.000000*%
%TD*%
%TA.AperFunction,Conductor*%
%ADD22C,0.250000*%
%TD*%
G04 APERTURE END LIST*
D10*
%TO.P,R2,1*%
%TO.N,Net-(R2-Pad1)*%
X101117400Y-77317600D03*
D11*
%TO.P,R2,2*%
%TO.N,Net-(D1-Pad2)*%
X101117400Y-69697600D03*
%TD*%
D12*
%TO.P,D1,1*%
%TO.N,Net-(D1-Pad1)*%
X108064300Y-64008000D03*
D13*
%TO.P,D1,2*%
%TO.N,Net-(D1-Pad2)*%
X108064300Y-66548000D03*
%TD*%
%TO.P,D2,2*%
%TO.N,Net-(D2-Pad2)*%
X100584000Y-66509900D03*
D12*
%TO.P,D2,1*%
%TO.N,Net-(D1-Pad1)*%
X100584000Y-63969900D03*
%TD*%
%TO.P,D3,1*%
%TO.N,Net-(D1-Pad1)*%
X93179900Y-64008000D03*
D13*
%TO.P,D3,2*%
%TO.N,Net-(D3-Pad2)*%
X93179900Y-66548000D03*
%TD*%
D10*
%TO.P,R4,1*%
%TO.N,Net-(R4-Pad1)*%
X93167200Y-77381100D03*
D11*
%TO.P,R4,2*%
%TO.N,Net-(D3-Pad2)*%
X93167200Y-69761100D03*
%TD*%
%TO.P,R3,2*%
%TO.N,Net-(D2-Pad2)*%
X97282000Y-69697600D03*
D10*
%TO.P,R3,1*%
%TO.N,Net-(R3-Pad1)*%
X97282000Y-77317600D03*
%TD*%
D14*
%TO.P,J1,1*%
%TO.N,Net-(J1-Pad1)*%
X77279500Y-78752700D03*
D15*
%TO.P,J1,2*%
%TO.N,Net-(D1-Pad1)*%
X77279500Y-75252700D03*
%TD*%
D16*
%TO.P,U2,1*%
%TO.N,Net-(U2-Pad1)*%
X163766500Y-80518000D03*
D17*
%TO.P,U2,2*%
%TO.N,Net-(U1-Pad6)*%
X163766500Y-77978000D03*
%TO.P,U2,3*%
%TO.N,Net-(U1-Pad7)*%
X163766500Y-75438000D03*
%TO.P,U2,4*%
%TO.N,Net-(U2-Pad4)*%
X163766500Y-72898000D03*
%TO.P,U2,5*%
%TO.N,Net-(U2-Pad5)*%
X163766500Y-70358000D03*
%TO.P,U2,6*%
%TO.N,Net-(J1-Pad1)*%
X134556500Y-80518000D03*
%TO.P,U2,7*%
%TO.N,Net-(D1-Pad1)*%
X134556500Y-77978000D03*
%TO.P,U2,8*%
%TO.N,Net-(U2-Pad8)*%
X134556500Y-75438000D03*
%TO.P,U2,9*%
%TO.N,Net-(U2-Pad9)*%
X134556500Y-72898000D03*
%TD*%
D16*
%TO.P,U1,1*%
%TO.N,Net-(U1-Pad1)*%
X120789700Y-86931500D03*
D17*
%TO.P,U1,2*%
%TO.N,Net-(U1-Pad2)*%
X118249700Y-86931500D03*
%TO.P,U1,3*%
%TO.N,Net-(U1-Pad3)*%
X115709700Y-86931500D03*
%TO.P,U1,4*%
%TO.N,Net-(U1-Pad4)*%
X113169700Y-86931500D03*
%TO.P,U1,5*%
%TO.N,Net-(U1-Pad5)*%
X110629700Y-86931500D03*
%TO.P,U1,6*%
%TO.N,Net-(U1-Pad6)*%
X108089700Y-86931500D03*
%TO.P,U1,7*%
%TO.N,Net-(U1-Pad7)*%
X105549700Y-86931500D03*
%TO.P,U1,8*%
%TO.N,Net-(U1-Pad8)*%
X103009700Y-86931500D03*
%TO.P,U1,9*%
%TO.N,Net-(U1-Pad9)*%
X100469700Y-86931500D03*
%TO.P,U1,10*%
%TO.N,Net-(U1-Pad10)*%
X97929700Y-86931500D03*
%TO.P,U1,11*%
%TO.N,Net-(R2-Pad1)*%
X95389700Y-86931500D03*
%TO.P,U1,12*%
%TO.N,Net-(R3-Pad1)*%
X92849700Y-86931500D03*
%TO.P,U1,13*%
%TO.N,Net-(R4-Pad1)*%
X90309700Y-86931500D03*
%TO.P,U1,14*%
%TO.N,Net-(D1-Pad1)*%
X87769700Y-86931500D03*
%TO.P,U1,15*%
%TO.N,Net-(J1-Pad1)*%
X85229700Y-86931500D03*
%TO.P,U1,16*%
%TO.N,Net-(R1-Pad2)*%
X85229700Y-112331500D03*
%TO.P,U1,17*%
%TO.N,Net-(BZ1-Pad2)*%
X87769700Y-112331500D03*
%TO.P,U1,18*%
%TO.N,Net-(U1-Pad18)*%
X90309700Y-112331500D03*
%TO.P,U1,19*%
%TO.N,Net-(U1-Pad19)*%
X92849700Y-112331500D03*
%TO.P,U1,20*%
%TO.N,Net-(R1-Pad1)*%
X95389700Y-112331500D03*
%TO.P,U1,21*%
%TO.N,Net-(U1-Pad21)*%
X97929700Y-112331500D03*
%TO.P,U1,22*%
%TO.N,Net-(U1-Pad22)*%
X100469700Y-112331500D03*
%TO.P,U1,23*%
%TO.N,Net-(U1-Pad23)*%
X103009700Y-112331500D03*
%TO.P,U1,24*%
%TO.N,Net-(U1-Pad24)*%
X105549700Y-112331500D03*
%TO.P,U1,25*%
%TO.N,Net-(U1-Pad25)*%
X108089700Y-112331500D03*
%TO.P,U1,26*%
%TO.N,Net-(U1-Pad26)*%
X110629700Y-112331500D03*
%TO.P,U1,27*%
%TO.N,Net-(U1-Pad27)*%
X113169700Y-112331500D03*
%TO.P,U1,28*%
%TO.N,Net-(U1-Pad28)*%
X115709700Y-112331500D03*
%TO.P,U1,29*%
%TO.N,Net-(U1-Pad29)*%
X118249700Y-112331500D03*
%TO.P,U1,30*%
%TO.N,Net-(R5-Pad2)*%
X120789700Y-112331500D03*
%TD*%
D18*
%TO.P,TH1,4*%
%TO.N,Net-(BZ1-Pad2)*%
X143827500Y-118795800D03*
%TO.P,TH1,3*%
%TO.N,Net-(TH1-Pad3)*%
X143827500Y-116255800D03*
%TO.P,TH1,2*%
%TO.N,Net-(R1-Pad1)*%
X143827500Y-113715800D03*
D19*
%TO.P,TH1,1*%
%TO.N,Net-(R1-Pad2)*%
X143827500Y-111175800D03*
%TD*%
D11*
%TO.P,R1,2*%
%TO.N,Net-(R1-Pad2)*%
X132765800Y-93713300D03*
D10*
%TO.P,R1,1*%
%TO.N,Net-(R1-Pad1)*%
X132765800Y-101333300D03*
%TD*%
D20*
%TO.P,BZ1,1*%
%TO.N,Net-(BZ1-Pad1)*%
X151955500Y-91655900D03*
D21*
%TO.P,BZ1,2*%
%TO.N,Net-(BZ1-Pad2)*%
X151955500Y-99255900D03*
%TD*%
D10*
%TO.P,R5,1*%
%TO.N,Net-(BZ1-Pad1)*%
X136867900Y-93662500D03*
D11*
%TO.P,R5,2*%
%TO.N,Net-(R5-Pad2)*%
X136867900Y-101282500D03*
%TD*%
D22*
%TO.N,Net-(BZ1-Pad2)*%
X87769700Y-112331500D02*
X87769700Y-114782600D01*
X87769700Y-114782600D02*
X88773000Y-115785900D01*
X140817600Y-115785900D02*
X143827500Y-118795800D01*
%TO.N,Net-(D1-Pad1)*%
X87769700Y-86931500D02*
X87769700Y-85742900D01*
X100584000Y-63969900D02*
X108026200Y-63969900D01*
X93179900Y-64008000D02*
X100545900Y-64008000D01*
X100545900Y-64008000D02*
X100584000Y-63969900D01*
X93179900Y-64431555D02*
X93179900Y-64008000D01*
X93179900Y-64008000D02*
X92354400Y-64008000D01*
X108026200Y-63969900D02*
X108064300Y-64008000D01*
X108064300Y-64008000D02*
X108978700Y-64008000D01*
X122948700Y-77978000D02*
X134556500Y-77978000D01*
X108978700Y-64008000D02*
X122948700Y-77978000D01*
X82858550Y-74329350D02*
X93179900Y-64008000D01*
X82858550Y-80831750D02*
X82858550Y-74329350D01*
X87769700Y-85742900D02*
X82858550Y-80831750D01*
X82858550Y-80831750D02*
X77279500Y-75252700D01*
%TO.N,Net-(BZ1-Pad2)*%
X151955500Y-99255900D02*
X146971700Y-99255900D01*
X133426200Y-112801400D02*
X133426200Y-115785900D01*
X146971700Y-99255900D02*
X133426200Y-112801400D01*
X133426200Y-115785900D02*
X140817600Y-115785900D01*
X88773000Y-115785900D02*
X133426200Y-115785900D01*
%TO.N,Net-(R5-Pad2)*%
X136867900Y-101282500D02*
X136867900Y-103911400D01*
X136867900Y-103911400D02*
X134835900Y-105943400D01*
X127177800Y-105943400D02*
X120789700Y-112331500D01*
X134835900Y-105943400D02*
X127177800Y-105943400D01*
%TD*%
M02*
