M48
; DRILL file {KiCad (5.1.9)-1} date 03/06/21 00:16:51
; FORMAT={3:3/ absolute / metric / suppress leading zeros}
; #@! TF.CreationDate,2021-03-06T00:16:51+01:00
; #@! TF.GenerationSoftware,Kicad,Pcbnew,(5.1.9)-1
FMAT,2
METRIC,TZ
T1C0.762
T2C0.800
T3C0.900
T4C1.000
T5C1.016
T6C1.200
T7C3.200
%
G90
G05
T1
X85230Y-86932
X85230Y-112331
X87770Y-86932
X87770Y-112331
X90310Y-86932
X90310Y-112331
X92850Y-86932
X92850Y-112331
X95390Y-86932
X95390Y-112331
X97930Y-86932
X97930Y-112331
X100470Y-86932
X100470Y-112331
X103010Y-86932
X103010Y-112331
X105550Y-86932
X105550Y-112331
X108090Y-86932
X108090Y-112331
X110630Y-86932
X110630Y-112331
X113170Y-86932
X113170Y-112331
X115710Y-86932
X115710Y-112331
X118250Y-86932
X118250Y-112331
X120790Y-86932
X120790Y-112331
X134557Y-72898
X134557Y-75438
X134557Y-77978
X134557Y-80518
X163766Y-70358
X163766Y-72898
X163766Y-75438
X163766Y-77978
X163766Y-80518
T2
X93167Y-69761
X93167Y-77381
X97282Y-69698
X97282Y-77318
X101117Y-69698
X101117Y-77318
X132766Y-93713
X132766Y-101333
X136868Y-93663
X136868Y-101283
T3
X93180Y-64008
X93180Y-66548
X100584Y-63970
X100584Y-66510
X108064Y-64008
X108064Y-66548
T4
X151956Y-91656
X151956Y-99256
T5
X143827Y-111176
X143827Y-113716
X143827Y-116256
X143827Y-118796
T6
X77280Y-75253
X77280Y-78753
T7
X80000Y-65000
X80000Y-120700
X122300Y-65000
X122300Y-120700
T0
M30
